<mxfile host="app.diagrams.net" agent="Mozilla/5.0 (X11; Linux x86_64) AppleWebKit/537.36 (KHTML, like Gecko) Chrome/127.0.0.0 Safari/537.36 Edg/127.0.0.0" version="24.7.7">
  <diagram name="PÃ¡gina-1" id="oEHAJzPxStWgB8iob0_2">
    <mxGraphModel dx="1379" dy="796" grid="1" gridSize="10" guides="1" tooltips="1" connect="1" arrows="1" fold="1" page="1" pageScale="1" pageWidth="827" pageHeight="1169" math="0" shadow="0">
      <root>
        <mxCell id="0" />
        <mxCell id="1" parent="0" />
        <mxCell id="YxiSHbuK_-1eahVj8JlU-12" value="" style="edgeStyle=orthogonalEdgeStyle;rounded=0;orthogonalLoop=1;jettySize=auto;html=1;" edge="1" parent="1" source="YxiSHbuK_-1eahVj8JlU-1" target="YxiSHbuK_-1eahVj8JlU-8">
          <mxGeometry relative="1" as="geometry" />
        </mxCell>
        <mxCell id="YxiSHbuK_-1eahVj8JlU-18" style="edgeStyle=orthogonalEdgeStyle;rounded=0;orthogonalLoop=1;jettySize=auto;html=1;exitX=0.5;exitY=0;exitDx=0;exitDy=0;exitPerimeter=0;" edge="1" parent="1" source="YxiSHbuK_-1eahVj8JlU-1">
          <mxGeometry relative="1" as="geometry">
            <mxPoint x="110" y="160" as="targetPoint" />
          </mxGeometry>
        </mxCell>
        <mxCell id="YxiSHbuK_-1eahVj8JlU-1" value="Regular" style="shape=umlActor;verticalLabelPosition=bottom;verticalAlign=top;html=1;outlineConnect=0;" vertex="1" parent="1">
          <mxGeometry x="95" y="340" width="30" height="60" as="geometry" />
        </mxCell>
        <mxCell id="YxiSHbuK_-1eahVj8JlU-13" value="" style="edgeStyle=orthogonalEdgeStyle;rounded=0;orthogonalLoop=1;jettySize=auto;html=1;" edge="1" parent="1" source="YxiSHbuK_-1eahVj8JlU-2" target="YxiSHbuK_-1eahVj8JlU-6">
          <mxGeometry relative="1" as="geometry" />
        </mxCell>
        <mxCell id="YxiSHbuK_-1eahVj8JlU-14" value="" style="edgeStyle=orthogonalEdgeStyle;rounded=0;orthogonalLoop=1;jettySize=auto;html=1;" edge="1" parent="1" source="YxiSHbuK_-1eahVj8JlU-2" target="YxiSHbuK_-1eahVj8JlU-6">
          <mxGeometry relative="1" as="geometry" />
        </mxCell>
        <mxCell id="YxiSHbuK_-1eahVj8JlU-15" style="edgeStyle=orthogonalEdgeStyle;rounded=0;orthogonalLoop=1;jettySize=auto;html=1;entryX=0.5;entryY=1;entryDx=0;entryDy=0;" edge="1" parent="1" source="YxiSHbuK_-1eahVj8JlU-2" target="YxiSHbuK_-1eahVj8JlU-9">
          <mxGeometry relative="1" as="geometry" />
        </mxCell>
        <mxCell id="YxiSHbuK_-1eahVj8JlU-2" value="Moderador&lt;div&gt;&lt;br&gt;&lt;/div&gt;" style="shape=umlActor;verticalLabelPosition=bottom;verticalAlign=top;html=1;outlineConnect=0;" vertex="1" parent="1">
          <mxGeometry x="295" y="340" width="30" height="60" as="geometry" />
        </mxCell>
        <mxCell id="YxiSHbuK_-1eahVj8JlU-3" value="Editar Postagem&lt;div&gt;&lt;br&gt;&lt;/div&gt;" style="ellipse;whiteSpace=wrap;html=1;" vertex="1" parent="1">
          <mxGeometry x="40" y="90" width="140" height="70" as="geometry" />
        </mxCell>
        <mxCell id="YxiSHbuK_-1eahVj8JlU-4" value="Exicluir Postagem" style="ellipse;whiteSpace=wrap;html=1;" vertex="1" parent="1">
          <mxGeometry x="240" y="170" width="140" height="70" as="geometry" />
        </mxCell>
        <mxCell id="YxiSHbuK_-1eahVj8JlU-5" value="Bloquar Usuario" style="ellipse;whiteSpace=wrap;html=1;" vertex="1" parent="1">
          <mxGeometry x="240" y="250" width="140" height="70" as="geometry" />
        </mxCell>
        <mxCell id="YxiSHbuK_-1eahVj8JlU-6" value="Comentar Postagem&lt;div&gt;&lt;br&gt;&lt;/div&gt;" style="ellipse;whiteSpace=wrap;html=1;" vertex="1" parent="1">
          <mxGeometry x="140" y="530" width="140" height="70" as="geometry" />
        </mxCell>
        <mxCell id="YxiSHbuK_-1eahVj8JlU-7" value="Curtir Postagem" style="ellipse;whiteSpace=wrap;html=1;" vertex="1" parent="1">
          <mxGeometry x="40" y="170" width="140" height="70" as="geometry" />
        </mxCell>
        <mxCell id="YxiSHbuK_-1eahVj8JlU-16" style="edgeStyle=orthogonalEdgeStyle;rounded=0;orthogonalLoop=1;jettySize=auto;html=1;" edge="1" parent="1" source="YxiSHbuK_-1eahVj8JlU-8" target="YxiSHbuK_-1eahVj8JlU-6">
          <mxGeometry relative="1" as="geometry" />
        </mxCell>
        <mxCell id="YxiSHbuK_-1eahVj8JlU-8" value="Criar Postagem" style="ellipse;whiteSpace=wrap;html=1;" vertex="1" parent="1">
          <mxGeometry x="140" y="440" width="140" height="70" as="geometry" />
        </mxCell>
        <mxCell id="YxiSHbuK_-1eahVj8JlU-9" value="Editar Qualquer&lt;br&gt;Postagem" style="ellipse;whiteSpace=wrap;html=1;" vertex="1" parent="1">
          <mxGeometry x="240" y="90" width="140" height="70" as="geometry" />
        </mxCell>
        <mxCell id="YxiSHbuK_-1eahVj8JlU-17" style="edgeStyle=orthogonalEdgeStyle;rounded=0;orthogonalLoop=1;jettySize=auto;html=1;" edge="1" parent="1" source="YxiSHbuK_-1eahVj8JlU-10" target="YxiSHbuK_-1eahVj8JlU-3">
          <mxGeometry relative="1" as="geometry" />
        </mxCell>
        <mxCell id="YxiSHbuK_-1eahVj8JlU-10" value="Reportar Postagem" style="ellipse;whiteSpace=wrap;html=1;" vertex="1" parent="1">
          <mxGeometry x="40" y="250" width="140" height="70" as="geometry" />
        </mxCell>
      </root>
    </mxGraphModel>
  </diagram>
</mxfile>
